<svg width="662" height="757" viewBox="0 0 662 757" fill="none" xmlns="http://www.w3.org/2000/svg">
<path d="M557.671 49.6494C557.671 167.435 605.282 439.308 269.991 481C120.879 481 0 385.516 0 267.73C0 149.944 120.879 267.73 269.991 267.73C269.991 31.2088 557.671 -68.1364 557.671 49.6494Z" fill="#FDC500"/>
<path d="M659.671 326.026C659.671 443.709 707.282 715.344 371.991 757C222.879 757 102 661.599 102 543.916C102 426.233 222.879 543.916 371.991 543.916C521.103 543.916 659.671 208.342 659.671 326.026Z" fill="#FDC500"/>
<rect width="527.67" height="362.858" rx="17" transform="matrix(0.0150465 0.999887 -0.999938 0.0111774 591.721 97.8326)" fill="#4E0C08" fill-opacity="0.8"/>
<rect width="442.726" height="275.251" rx="32" transform="matrix(-0.000893361 1 -1 -0.000663607 543.609 154.149)" fill="#FCF8F8"/>
<path d="M372.574 390.515L384.269 404.723L348.897 370.718L372.574 511.551V390.515Z" fill="#FDC500"/>
<path d="M407.731 412.451C407.731 423.187 393.865 427.669 377.618 427.669C361.372 427.669 348.897 423.187 348.897 412.451C348.897 401.714 398.116 412.451 378.314 393.011C394.56 393.011 407.731 401.714 407.731 412.451Z" fill="#030E01"/>
<path d="M407.731 412.451C407.731 423.187 393.865 427.669 377.618 427.669C361.372 427.669 348.897 423.187 348.897 412.451C348.897 401.714 398.116 412.451 378.314 393.011C394.56 393.011 407.731 401.714 407.731 412.451Z" fill="#030E01"/>
<path d="M407.73 443.188C407.73 453.924 394.56 462.628 378.314 462.628C362.067 462.628 536.519 457.667 536.519 446.931C536.519 436.194 361.372 427.669 377.618 427.669C393.865 427.669 407.73 432.452 407.73 443.188Z" fill="#030E01"/>
<path d="M407.73 443.188C407.73 453.924 394.56 462.628 378.314 462.628C362.067 462.628 536.519 457.667 536.519 446.931C536.519 436.194 361.372 427.669 377.618 427.669C393.865 427.669 407.73 432.452 407.73 443.188Z" fill="#030E01"/>
<path d="M368.072 474.31C303.662 496.212 326.168 366.612 382.033 380.907C261.21 376.662 331.326 473.677 324.223 468.189C317.12 462.7 359.955 487.469 368.537 480.644C377.119 473.819 360.969 468.821 368.072 474.31Z" fill="#4E0C08"/>
<path d="M276.75 291V289.35C278.017 289.317 278.883 289.033 279.35 288.5C279.817 287.933 280.067 287.183 280.1 286.25C280.167 285.283 280.2 284.183 280.2 282.95V261.95C280.2 261.05 280.217 260.283 280.25 259.65C280.283 258.983 280.317 258.433 280.35 258C279.75 258.033 279.15 258.067 278.55 258.1C277.95 258.133 277.35 258.167 276.75 258.2V256C278.583 255.967 280.417 255.95 282.25 255.95C284.117 255.917 286.05 255.9 288.05 255.9C291.917 255.9 294.933 256.583 297.1 257.95C299.3 259.317 300.367 261.483 300.3 264.45C300.3 265.517 299.983 266.583 299.35 267.65C298.75 268.717 297.833 269.667 296.6 270.5C295.4 271.3 293.883 271.867 292.05 272.2V272.3C295.717 272.3 298.483 273.15 300.35 274.85C302.217 276.517 303.15 278.633 303.15 281.2C303.15 283.233 302.633 284.983 301.6 286.45C300.567 287.917 299.167 289.05 297.4 289.85C295.633 290.617 293.617 291 291.35 291H276.75ZM284.4 289C284.933 289.033 285.567 289.067 286.3 289.1C287.067 289.1 287.767 289.1 288.4 289.1C289.067 289.1 289.5 289.1 289.7 289.1C292.267 289.1 294.333 288.467 295.9 287.2C297.5 285.9 298.3 284 298.3 281.5C298.3 279.467 297.9 277.883 297.1 276.75C296.3 275.617 295.25 274.817 293.95 274.35C292.65 273.883 291.233 273.65 289.7 273.65C288.7 273.65 287.783 273.667 286.95 273.7C286.15 273.7 285.35 273.733 284.55 273.8V285.1C284.55 286 284.533 286.767 284.5 287.4C284.5 288.033 284.467 288.567 284.4 289ZM284.55 271.85L288.2 271.75C290.1 271.717 291.6 271.333 292.7 270.6C293.8 269.833 294.583 268.883 295.05 267.75C295.55 266.617 295.783 265.433 295.75 264.2C295.717 262.4 295.3 261.033 294.5 260.1C293.733 259.167 292.783 258.533 291.65 258.2C290.517 257.867 289.4 257.7 288.3 257.7C287.2 257.7 286.383 257.85 285.85 258.15C285.317 258.45 284.967 258.95 284.8 259.65C284.633 260.35 284.55 261.317 284.55 262.55V271.85ZM317.512 257.65C316.412 257.65 315.612 257.883 315.112 258.35C314.645 258.817 314.362 259.367 314.262 260C314.162 260.6 314.112 261.133 314.112 261.6V274.2C314.112 276.067 314.228 277.883 314.462 279.65C314.728 281.383 315.212 282.95 315.912 284.35C316.612 285.75 317.645 286.867 319.012 287.7C320.412 288.533 322.228 288.95 324.462 288.95C326.862 288.95 328.812 288.383 330.312 287.25C331.845 286.117 332.962 284.55 333.662 282.55C334.395 280.55 334.778 278.25 334.812 275.65L334.962 261.6C334.962 260.933 334.978 260.3 335.012 259.7C335.045 259.067 335.078 258.5 335.112 258C334.512 258.033 333.912 258.067 333.312 258.1C332.745 258.133 332.162 258.167 331.562 258.2V256H340.862V257.65C339.595 257.683 338.712 257.967 338.212 258.5C337.745 259.033 337.478 259.75 337.412 260.65C337.378 261.55 337.362 262.6 337.362 263.8L337.262 275.4C337.262 277.567 337.028 279.633 336.562 281.6C336.095 283.567 335.328 285.317 334.262 286.85C333.228 288.383 331.845 289.6 330.112 290.5C328.412 291.367 326.312 291.8 323.812 291.8C321.145 291.8 318.895 291.45 317.062 290.75C315.262 290.05 313.812 288.967 312.712 287.5C311.645 286.033 310.878 284.183 310.412 281.95C309.945 279.717 309.712 277.05 309.712 273.95V263.8C309.712 262.933 309.728 261.917 309.762 260.75C309.828 259.55 309.878 258.633 309.912 258C309.312 258.033 308.712 258.067 308.112 258.1C307.512 258.1 306.912 258.117 306.312 258.15V256H317.512V257.65ZM345.109 289.35C346.376 289.283 347.243 289 347.709 288.5C348.176 287.967 348.426 287.25 348.459 286.35C348.526 285.417 348.559 284.367 348.559 283.2V261.6C348.559 260.933 348.576 260.3 348.609 259.7C348.643 259.067 348.676 258.5 348.709 258C348.109 258.033 347.509 258.067 346.909 258.1C346.309 258.133 345.709 258.167 345.109 258.2V256L356.909 255.95C359.909 255.95 362.659 256.3 365.159 257C367.659 257.7 369.809 258.783 371.609 260.25C373.443 261.683 374.843 263.517 375.809 265.75C376.809 267.95 377.309 270.55 377.309 273.55C377.309 275.85 376.909 278.05 376.109 280.15C375.309 282.25 374.109 284.117 372.509 285.75C370.909 287.35 368.909 288.633 366.509 289.6C364.143 290.533 361.393 291 358.259 291H345.109V289.35ZM352.909 285.1C352.909 286 352.893 286.767 352.859 287.4C352.859 288.033 352.826 288.567 352.759 289C353.659 289.033 354.476 289.067 355.209 289.1C355.976 289.1 356.609 289.1 357.109 289.1C357.643 289.1 357.976 289.1 358.109 289.1C360.276 289.1 362.226 288.7 363.959 287.9C365.726 287.1 367.226 286 368.459 284.6C369.726 283.167 370.693 281.5 371.359 279.6C372.059 277.667 372.409 275.583 372.409 273.35C372.409 270.183 371.826 267.45 370.659 265.15C369.526 262.817 367.776 261.017 365.409 259.75C363.043 258.45 360.026 257.8 356.359 257.8C355.126 257.8 354.259 258.05 353.759 258.55C353.293 259.05 353.026 259.75 352.959 260.65C352.926 261.55 352.909 262.6 352.909 263.8V285.1ZM398.965 291.8C395.632 291.8 392.682 291.1 390.115 289.7C387.549 288.3 385.549 286.283 384.115 283.65C382.682 281.017 381.965 277.883 381.965 274.25C381.965 271.883 382.315 269.583 383.015 267.35C383.749 265.083 384.832 263.033 386.265 261.2C387.732 259.367 389.549 257.917 391.715 256.85C393.915 255.75 396.465 255.2 399.365 255.2C400.565 255.2 401.782 255.317 403.015 255.55C404.249 255.75 405.432 256.067 406.565 256.5C407.732 256.9 408.782 257.383 409.715 257.95L409.515 255.55H412.265V267H410.465C410.332 264.9 409.765 263.133 408.765 261.7C407.799 260.233 406.532 259.117 404.965 258.35C403.399 257.583 401.649 257.2 399.715 257.2C397.949 257.2 396.282 257.6 394.715 258.4C393.182 259.167 391.815 260.267 390.615 261.7C389.449 263.1 388.532 264.767 387.865 266.7C387.199 268.633 386.865 270.767 386.865 273.1C386.865 276.233 387.432 279.033 388.565 281.5C389.699 283.967 391.265 285.9 393.265 287.3C395.299 288.7 397.632 289.4 400.265 289.4C401.165 289.4 402.099 289.317 403.065 289.15C404.065 288.983 405.049 288.717 406.015 288.35C407.015 287.95 407.949 287.467 408.815 286.9V280.8C408.815 280 408.815 279.2 408.815 278.4C408.815 277.567 408.815 276.75 408.815 275.95C408.249 275.983 407.665 276.017 407.065 276.05C406.465 276.083 405.882 276.117 405.315 276.15V273.95H416.615V275.6C415.682 275.6 414.965 275.85 414.465 276.35C413.965 276.817 413.615 277.4 413.415 278.1C413.215 278.767 413.099 279.433 413.065 280.1C413.032 280.733 413.015 281.217 413.015 281.55V289.2H411.665C411.132 289.2 410.399 289.3 409.465 289.5C408.532 289.7 407.465 290.033 406.265 290.5C405.232 290.9 404.032 291.217 402.665 291.45C401.299 291.683 400.065 291.8 398.965 291.8ZM437.802 278.05C437.802 276.583 437.602 275.533 437.202 274.9C436.802 274.267 436.169 273.883 435.302 273.75C434.436 273.617 433.286 273.583 431.852 273.65L428.202 273.8V285.25C428.202 286.15 428.186 286.917 428.152 287.55C428.152 288.183 428.119 288.717 428.052 289.15L437.602 289C439.069 288.967 440.336 288.733 441.402 288.3C442.469 287.833 443.302 287.033 443.902 285.9C444.502 284.767 444.802 283.217 444.802 281.25H446.502L446.202 291H420.402V289.35C421.669 289.283 422.536 289 423.002 288.5C423.469 287.967 423.719 287.25 423.752 286.35C423.819 285.417 423.852 284.367 423.852 283.2V261.6C423.852 260.933 423.869 260.3 423.902 259.7C423.936 259.067 423.969 258.5 424.002 258C423.402 258.033 422.802 258.067 422.202 258.1C421.602 258.133 421.002 258.167 420.402 258.2V256H444.452L444.702 264.75H443.052C443.052 262.783 442.752 261.3 442.152 260.3C441.552 259.267 440.736 258.583 439.702 258.25C438.702 257.883 437.569 257.717 436.302 257.75L432.002 257.85C430.769 257.883 429.886 258.117 429.352 258.55C428.819 258.983 428.486 259.633 428.352 260.5C428.252 261.333 428.202 262.433 428.202 263.8V271.8L437.602 271.85L437.252 267.55H439.452V278.05H437.802ZM477.706 266.55C477.673 264.583 477.473 262.95 477.106 261.65C476.739 260.35 476.089 259.383 475.156 258.75C474.256 258.083 472.939 257.767 471.206 257.8H466.956L466.906 285.05C466.906 285.95 466.889 286.733 466.856 287.4C466.856 288.033 466.823 288.567 466.756 289C467.456 288.967 468.139 288.933 468.806 288.9C469.506 288.867 470.206 288.833 470.906 288.8V291H459.156V289.35C460.423 289.283 461.273 288.983 461.706 288.45C462.173 287.917 462.423 287.2 462.456 286.3C462.523 285.367 462.556 284.333 462.556 283.2L462.606 257.85L457.456 257.9C455.356 257.9 453.873 258.6 453.006 260C452.139 261.4 451.706 263.583 451.706 266.55H449.856L450.156 256H479.306L479.606 266.55H477.706Z" fill="#FDC500"/>
<path d="M288.7 329.3C287.08 329.3 285.57 329.05 284.17 328.55C282.77 328.03 281.54 327.29 280.48 326.33C279.44 325.37 278.63 324.23 278.05 322.91C277.47 321.57 277.18 320.1 277.18 318.5C277.18 316.98 277.48 315.57 278.08 314.27C278.7 312.97 279.54 311.84 280.6 310.88C281.68 309.9 282.92 309.15 284.32 308.63C285.72 308.09 287.21 307.82 288.79 307.82C290.05 307.82 291.26 307.99 292.42 308.33C293.58 308.67 294.63 309.11 295.57 309.65C296.53 310.17 297.3 310.74 297.88 311.36L295.87 313.97C295.19 313.37 294.47 312.85 293.71 312.41C292.97 311.97 292.17 311.63 291.31 311.39C290.45 311.15 289.53 311.03 288.55 311.03C287.51 311.03 286.51 311.21 285.55 311.57C284.59 311.91 283.72 312.41 282.94 313.07C282.18 313.71 281.58 314.5 281.14 315.44C280.7 316.36 280.48 317.38 280.48 318.5C280.48 319.72 280.7 320.81 281.14 321.77C281.6 322.71 282.23 323.5 283.03 324.14C283.83 324.78 284.74 325.27 285.76 325.61C286.8 325.95 287.89 326.12 289.03 326.12C290.07 326.12 291.02 325.99 291.88 325.73C292.74 325.45 293.51 325.1 294.19 324.68C294.89 324.24 295.52 323.8 296.08 323.36L297.64 326.03C297.12 326.51 296.4 327.01 295.48 327.53C294.56 328.03 293.52 328.45 292.36 328.79C291.2 329.13 289.98 329.3 288.7 329.3ZM316.075 329.3C314.335 329.3 312.735 329.03 311.275 328.49C309.815 327.93 308.545 327.16 307.465 326.18C306.385 325.2 305.545 324.06 304.945 322.76C304.365 321.44 304.075 320.02 304.075 318.5C304.075 316.98 304.365 315.57 304.945 314.27C305.545 312.95 306.385 311.8 307.465 310.82C308.545 309.84 309.815 309.08 311.275 308.54C312.735 307.98 314.335 307.7 316.075 307.7C317.815 307.7 319.415 307.98 320.875 308.54C322.335 309.08 323.605 309.84 324.685 310.82C325.765 311.8 326.605 312.95 327.205 314.27C327.805 315.57 328.105 316.98 328.105 318.5C328.105 320.02 327.805 321.44 327.205 322.76C326.605 324.06 325.765 325.2 324.685 326.18C323.605 327.16 322.335 327.93 320.875 328.49C319.415 329.03 317.815 329.3 316.075 329.3ZM316.075 326.15C317.355 326.15 318.525 325.96 319.585 325.58C320.645 325.18 321.565 324.64 322.345 323.96C323.125 323.26 323.725 322.45 324.145 321.53C324.585 320.59 324.805 319.58 324.805 318.5C324.805 317.42 324.585 316.42 324.145 315.5C323.725 314.56 323.125 313.75 322.345 313.07C321.565 312.37 320.645 311.83 319.585 311.45C318.525 311.05 317.355 310.85 316.075 310.85C314.795 310.85 313.625 311.05 312.565 311.45C311.505 311.83 310.585 312.36 309.805 313.04C309.025 313.72 308.425 314.53 308.005 315.47C307.585 316.39 307.375 317.4 307.375 318.5C307.375 319.58 307.585 320.59 308.005 321.53C308.425 322.47 309.025 323.28 309.805 323.96C310.585 324.64 311.505 325.18 312.565 325.58C313.625 325.96 314.795 326.15 316.075 326.15ZM335.986 329V308H339.136L354.976 325.19L354.736 325.46C354.636 324.88 354.546 324.26 354.466 323.6C354.406 322.94 354.356 322.26 354.316 321.56C354.276 320.84 354.236 320.11 354.196 319.37C354.176 318.61 354.156 317.86 354.136 317.12C354.136 316.36 354.136 315.62 354.136 314.9V308H357.376V329H354.166L338.536 312.44L338.626 312.02C338.686 312.62 338.736 313.22 338.776 313.82C338.836 314.42 338.896 315.01 338.956 315.59C339.016 316.17 339.066 316.73 339.106 317.27C339.146 317.81 339.176 318.34 339.196 318.86C339.216 319.36 339.226 319.83 339.226 320.27V329H335.986ZM371.965 329V311.12H364.585V308H382.795V311.12H375.205V329H371.965ZM389.951 329V308H401.291C402.531 308 403.661 308.29 404.681 308.87C405.701 309.45 406.521 310.23 407.141 311.21C407.761 312.19 408.071 313.29 408.071 314.51C408.071 315.75 407.741 316.88 407.081 317.9C406.421 318.9 405.541 319.71 404.441 320.33C403.361 320.93 402.171 321.23 400.871 321.23H393.191V329H389.951ZM405.161 329L398.531 319.52L401.951 318.77L409.181 329.03L405.161 329ZM393.191 318.11H400.751C401.451 318.11 402.101 317.95 402.701 317.63C403.301 317.29 403.771 316.85 404.111 316.31C404.471 315.75 404.651 315.15 404.651 314.51C404.651 313.87 404.461 313.3 404.081 312.8C403.721 312.28 403.221 311.87 402.581 311.57C401.941 311.27 401.251 311.12 400.511 311.12H393.191V318.11ZM427.784 329.3C426.044 329.3 424.444 329.03 422.984 328.49C421.524 327.93 420.254 327.16 419.174 326.18C418.094 325.2 417.254 324.06 416.654 322.76C416.074 321.44 415.784 320.02 415.784 318.5C415.784 316.98 416.074 315.57 416.654 314.27C417.254 312.95 418.094 311.8 419.174 310.82C420.254 309.84 421.524 309.08 422.984 308.54C424.444 307.98 426.044 307.7 427.784 307.7C429.524 307.7 431.124 307.98 432.584 308.54C434.044 309.08 435.314 309.84 436.394 310.82C437.474 311.8 438.314 312.95 438.914 314.27C439.514 315.57 439.814 316.98 439.814 318.5C439.814 320.02 439.514 321.44 438.914 322.76C438.314 324.06 437.474 325.2 436.394 326.18C435.314 327.16 434.044 327.93 432.584 328.49C431.124 329.03 429.524 329.3 427.784 329.3ZM427.784 326.15C429.064 326.15 430.234 325.96 431.294 325.58C432.354 325.18 433.274 324.64 434.054 323.96C434.834 323.26 435.434 322.45 435.854 321.53C436.294 320.59 436.514 319.58 436.514 318.5C436.514 317.42 436.294 316.42 435.854 315.5C435.434 314.56 434.834 313.75 434.054 313.07C433.274 312.37 432.354 311.83 431.294 311.45C430.234 311.05 429.064 310.85 427.784 310.85C426.504 310.85 425.334 311.05 424.274 311.45C423.214 311.83 422.294 312.36 421.514 313.04C420.734 313.72 420.134 314.53 419.714 315.47C419.294 316.39 419.084 317.4 419.084 318.5C419.084 319.58 419.294 320.59 419.714 321.53C420.134 322.47 420.734 323.28 421.514 323.96C422.294 324.64 423.214 325.18 424.274 325.58C425.334 325.96 426.504 326.15 427.784 326.15ZM447.695 329V308H450.935V325.88H463.805V329H447.695ZM472.129 329V308H475.369V325.88H488.239V329H472.129ZM496.152 329V308H512.412V311.12H499.392V325.88H512.412V329H496.152ZM497.862 319.79V316.67H510.762V319.79H497.862ZM521.23 329V308H532.57C533.81 308 534.94 308.29 535.96 308.87C536.98 309.45 537.8 310.23 538.42 311.21C539.04 312.19 539.35 313.29 539.35 314.51C539.35 315.75 539.02 316.88 538.36 317.9C537.7 318.9 536.82 319.71 535.72 320.33C534.64 320.93 533.45 321.23 532.15 321.23H524.47V329H521.23ZM536.44 329L529.81 319.52L533.23 318.77L540.46 329.03L536.44 329ZM524.47 318.11H532.03C532.73 318.11 533.38 317.95 533.98 317.63C534.58 317.29 535.05 316.85 535.39 316.31C535.75 315.75 535.93 315.15 535.93 314.51C535.93 313.87 535.74 313.3 535.36 312.8C535 312.28 534.5 311.87 533.86 311.57C533.22 311.27 532.53 311.12 531.79 311.12H524.47V318.11Z" fill="#4E0C08"/>
</svg>
