<svg width="452" height="420" viewBox="0 0 452 420" fill="none" xmlns="http://www.w3.org/2000/svg">
<rect x="21" y="75" width="411" height="259" rx="129.5" fill="#DCA519"/>
<path d="M419.832 162.02C410.947 140.208 397.889 121.794 382.308 109.106C366.728 96.4189 349.325 90.0278 332.3 90.7412C315.276 91.4546 299.394 99.2406 286.664 113.114C273.934 126.988 264.927 146.327 260.782 168.685C256.637 191.043 257.54 215.416 263.378 238.722C269.215 262.029 279.724 283.221 293.577 299.62C307.429 316.018 324.002 326.887 341.199 330.851C358.397 334.815 375.448 331.696 390.195 321.889L376.312 287.809C366.122 294.585 354.341 296.74 342.458 294.001C330.574 291.262 319.123 283.752 309.551 272.421C299.98 261.09 292.718 246.447 288.685 230.343C284.651 214.239 284.027 197.397 286.891 181.948C289.755 166.5 295.979 153.137 304.775 143.55C313.571 133.964 324.545 128.584 336.308 128.091C348.072 127.598 360.097 132.014 370.863 140.781C381.629 149.548 390.652 162.271 396.791 177.343L419.832 162.02Z" fill="#1E2223"/>
<path d="M397.648 152.766C388.763 130.954 375.704 112.54 360.123 99.8521C344.543 87.1646 327.14 80.7734 310.115 81.4868C293.091 82.2002 277.209 89.9862 264.479 103.86C251.749 117.734 242.742 137.073 238.597 159.431C234.452 181.789 235.356 206.162 241.193 229.468C247.03 252.774 257.54 273.967 271.392 290.365C285.244 306.764 301.817 317.632 319.015 321.596C336.212 325.56 353.263 322.441 368.01 312.634L354.127 278.554C343.938 285.331 332.156 287.486 320.273 284.747C308.389 282.008 296.938 274.498 287.366 263.167C277.795 251.836 270.533 237.192 266.5 221.088C262.466 204.984 261.842 188.143 264.706 172.694C267.57 157.245 273.794 143.883 282.59 134.296C291.386 124.71 302.36 119.33 314.124 118.837C325.887 118.344 337.912 122.76 348.678 131.527C359.444 140.293 368.467 153.017 374.606 168.089L397.648 152.766Z" fill="white"/>
<rect x="72" y="52" width="39" height="332" fill="#1995BC"/>
<rect x="72" y="52" width="39" height="332" fill="#332014" fill-opacity="0.89"/>
<path d="M82.0762 60.893C95.7026 47.9673 113.551 39.6938 133.229 37.1809C152.908 34.6681 173.476 38.036 192.179 46.8333C210.882 55.6307 226.825 69.4372 237.873 86.403C248.92 103.369 254.545 122.683 253.992 141.758C253.439 160.833 246.735 178.758 234.779 193.13C222.823 207.502 206.186 217.635 187.097 222.172C168.007 226.708 147.378 225.431 127.973 218.512C108.568 211.592 91.3142 199.361 78.5235 183.457L105.713 164.681C113.96 174.936 125.084 182.822 137.596 187.283C150.107 191.744 163.408 192.568 175.716 189.643C188.024 186.718 198.751 180.185 206.46 170.918C214.168 161.652 218.491 150.095 218.847 137.796C219.204 125.497 215.577 113.044 208.454 102.105C201.331 91.1665 191.052 82.2646 178.993 76.5925C166.934 70.9203 153.673 68.7489 140.985 70.3691C128.297 71.9892 116.789 77.3236 108.004 85.6575L82.0762 60.893Z" fill="#1995BC"/>
<path d="M82.0762 60.893C95.7026 47.9673 113.551 39.6938 133.229 37.1809C152.908 34.6681 173.476 38.036 192.179 46.8333C210.882 55.6307 226.825 69.4372 237.873 86.403C248.92 103.369 254.545 122.683 253.992 141.758C253.439 160.833 246.735 178.758 234.779 193.13C222.823 207.502 206.186 217.635 187.097 222.172C168.007 226.708 147.378 225.431 127.973 218.512C108.568 211.592 91.3142 199.361 78.5235 183.457L105.713 164.681C113.96 174.936 125.084 182.822 137.596 187.283C150.107 191.744 163.408 192.568 175.716 189.643C188.024 186.718 198.751 180.185 206.46 170.918C214.168 161.652 218.491 150.095 218.847 137.796C219.204 125.497 215.577 113.044 208.454 102.105C201.331 91.1665 191.052 82.2646 178.993 76.5925C166.934 70.9203 153.673 68.7489 140.985 70.3691C128.297 71.9892 116.789 77.3236 108.004 85.6575L82.0762 60.893Z" fill="#332014" fill-opacity="0.89"/>
<path d="M82.0762 217.893C95.7026 204.967 113.551 196.694 133.229 194.181C152.908 191.668 173.476 195.036 192.179 203.833C210.882 212.631 226.825 226.437 237.873 243.403C248.92 260.369 254.545 279.683 253.992 298.758C253.439 317.833 246.735 335.758 234.779 350.13C222.823 364.502 206.186 374.635 187.097 379.172C168.007 383.708 147.378 382.431 127.973 375.512C108.568 368.592 91.3142 356.361 78.5235 340.457L105.713 321.681C113.96 331.936 125.084 339.822 137.596 344.283C150.107 348.744 163.408 349.568 175.716 346.643C188.024 343.718 198.751 337.185 206.46 327.918C214.168 318.652 218.491 307.095 218.847 294.796C219.204 282.497 215.577 270.044 208.454 259.105C201.331 248.166 191.052 239.265 178.993 233.592C166.934 227.92 153.673 225.749 140.985 227.369C128.297 228.989 116.789 234.324 108.004 242.658L82.0762 217.893Z" fill="#1995BC"/>
<path d="M82.0762 217.893C95.7026 204.967 113.551 196.694 133.229 194.181C152.908 191.668 173.476 195.036 192.179 203.833C210.882 212.631 226.825 226.437 237.873 243.403C248.92 260.369 254.545 279.683 253.992 298.758C253.439 317.833 246.735 335.758 234.779 350.13C222.823 364.502 206.186 374.635 187.097 379.172C168.007 383.708 147.378 382.431 127.973 375.512C108.568 368.592 91.3142 356.361 78.5235 340.457L105.713 321.681C113.96 331.936 125.084 339.822 137.596 344.283C150.107 348.744 163.408 349.568 175.716 346.643C188.024 343.718 198.751 337.185 206.46 327.918C214.168 318.652 218.491 307.095 218.847 294.796C219.204 282.497 215.577 270.044 208.454 259.105C201.331 248.166 191.052 239.265 178.993 233.592C166.934 227.92 153.673 225.749 140.985 227.369C128.297 228.989 116.789 234.324 108.004 242.658L82.0762 217.893Z" fill="#332014" fill-opacity="0.89"/>
<rect x="51" y="53" width="39" height="332" fill="#6D3413"/>
<rect x="51" y="53" width="39" height="332" fill="#5D2A0D"/>
<path d="M61.0762 61.893C74.7026 48.9673 92.5508 40.6938 112.229 38.1809C131.908 35.6681 152.476 39.036 171.179 47.8333C189.882 56.6307 205.825 70.4372 216.873 87.403C227.92 104.369 233.545 123.683 232.992 142.758C232.439 161.833 225.735 179.758 213.779 194.13C201.823 208.502 185.186 218.635 166.097 223.172C147.007 227.708 126.378 226.431 106.973 219.512C87.5681 212.592 70.3142 200.361 57.5235 184.457L84.713 165.681C92.9599 175.936 104.084 183.822 116.596 188.283C129.107 192.744 142.408 193.568 154.716 190.643C167.024 187.718 177.751 181.185 185.46 171.918C193.168 162.652 197.491 151.095 197.847 138.796C198.204 126.497 194.577 114.044 187.454 103.105C180.331 92.1665 170.052 83.2646 157.993 77.5925C145.934 71.9203 132.673 69.7489 119.985 71.3691C107.297 72.9892 95.7893 78.3236 87.0036 86.6575L61.0762 61.893Z" fill="#6D3413"/>
<path d="M61.0762 61.893C74.7026 48.9673 92.5508 40.6938 112.229 38.1809C131.908 35.6681 152.476 39.036 171.179 47.8333C189.882 56.6307 205.825 70.4372 216.873 87.403C227.92 104.369 233.545 123.683 232.992 142.758C232.439 161.833 225.735 179.758 213.779 194.13C201.823 208.502 185.186 218.635 166.097 223.172C147.007 227.708 126.378 226.431 106.973 219.512C87.5681 212.592 70.3142 200.361 57.5235 184.457L84.713 165.681C92.9599 175.936 104.084 183.822 116.596 188.283C129.107 192.744 142.408 193.568 154.716 190.643C167.024 187.718 177.751 181.185 185.46 171.918C193.168 162.652 197.491 151.095 197.847 138.796C198.204 126.497 194.577 114.044 187.454 103.105C180.331 92.1665 170.052 83.2646 157.993 77.5925C145.934 71.9203 132.673 69.7489 119.985 71.3691C107.297 72.9892 95.7893 78.3236 87.0036 86.6575L61.0762 61.893Z" fill="#5D2A0D"/>
<path d="M61.0762 218.893C74.7026 205.967 92.5508 197.694 112.229 195.181C131.908 192.668 152.476 196.036 171.179 204.833C189.882 213.631 205.825 227.437 216.873 244.403C227.92 261.369 233.545 280.683 232.992 299.758C232.439 318.833 225.735 336.758 213.779 351.13C201.823 365.502 185.186 375.635 166.097 380.172C147.007 384.708 126.378 383.431 106.973 376.512C87.5681 369.592 70.3142 357.361 57.5235 341.457L84.713 322.681C92.9599 332.936 104.084 340.822 116.596 345.283C129.107 349.744 142.408 350.568 154.716 347.643C167.024 344.718 177.751 338.185 185.46 328.918C193.168 319.652 197.491 308.095 197.847 295.796C198.204 283.497 194.577 271.044 187.454 260.105C180.331 249.166 170.052 240.265 157.993 234.592C145.934 228.92 132.673 226.749 119.985 228.369C107.297 229.989 95.7893 235.324 87.0036 243.658L61.0762 218.893Z" fill="#6D3413"/>
<path d="M61.0762 218.893C74.7026 205.967 92.5508 197.694 112.229 195.181C131.908 192.668 152.476 196.036 171.179 204.833C189.882 213.631 205.825 227.437 216.873 244.403C227.92 261.369 233.545 280.683 232.992 299.758C232.439 318.833 225.735 336.758 213.779 351.13C201.823 365.502 185.186 375.635 166.097 380.172C147.007 384.708 126.378 383.431 106.973 376.512C87.5681 369.592 70.3142 357.361 57.5235 341.457L84.713 322.681C92.9599 332.936 104.084 340.822 116.596 345.283C129.107 349.744 142.408 350.568 154.716 347.643C167.024 344.718 177.751 338.185 185.46 328.918C193.168 319.652 197.491 308.095 197.847 295.796C198.204 283.497 194.577 271.044 187.454 260.105C180.331 249.166 170.052 240.265 157.993 234.592C145.934 228.92 132.673 226.749 119.985 228.369C107.297 229.989 95.7893 235.324 87.0036 243.658L61.0762 218.893Z" fill="#5D2A0D"/>
</svg>
