<svg width="1046" height="641" viewBox="0 0 1046 641" fill="none" xmlns="http://www.w3.org/2000/svg">
<path d="M387.748 115.187L434.705 176.911L292.684 29.1875L387.748 641.001V115.187Z" fill="#FDC500"/>
<path d="M528.905 210.484C528.905 257.124 473.233 276.598 408.003 276.598C342.772 276.598 292.684 257.124 292.684 210.484C292.684 163.843 490.303 210.484 410.794 126.033C476.025 126.033 528.905 163.843 528.905 210.484Z" fill="#030E01"/>
<path d="M528.905 210.484C528.905 257.124 473.233 276.598 408.003 276.598C342.772 276.598 292.684 257.124 292.684 210.484C292.684 163.843 490.303 210.484 410.794 126.033C476.025 126.033 528.905 163.843 528.905 210.484Z" fill="#030E01"/>
<path d="M528.905 344.016C528.905 390.656 476.025 428.466 410.794 428.466C345.564 428.466 1046 406.914 1046 360.273C1046 313.633 342.772 276.598 408.003 276.598C473.233 276.598 528.905 297.375 528.905 344.016Z" fill="#030E01"/>
<path d="M528.905 344.016C528.905 390.656 476.025 428.466 410.794 428.466C345.564 428.466 1046 406.914 1046 360.273C1046 313.633 342.772 276.598 408.003 276.598C473.233 276.598 528.905 297.375 528.905 344.016Z" fill="#030E01"/>
<path d="M369.674 479.215C111.065 574.362 201.426 11.3459 425.727 73.4475C-59.381 55.0081 222.137 476.467 193.619 452.622C165.101 428.778 337.083 536.383 371.541 506.733C405.999 477.084 341.156 455.371 369.674 479.215Z" fill="#4E0C08"/>
</svg>
