<svg width="791" height="689" viewBox="0 0 791 689" fill="none" xmlns="http://www.w3.org/2000/svg">
<path d="M350.97 50.3538C350.97 130.826 380.934 316.571 169.919 345.055C76.0751 345.055 1.21973e-07 279.82 8.47068e-08 199.348C4.74407e-08 118.876 76.0751 199.348 169.919 199.348C169.919 37.7551 350.97 -30.1181 350.97 50.3538Z" fill="#FDC500"/>
<path d="M415.422 238.828C415.422 319.3 445.385 505.045 234.37 533.529C140.527 533.529 64.4519 468.294 64.4519 387.822C64.4519 307.35 140.527 387.822 234.37 387.822C328.214 387.822 415.422 158.356 415.422 238.828Z" fill="#FDC500"/>
<path d="M224.271 356.599L275.832 285.936L325.636 270.599L371.338 285.936L476.805 346.191L448.68 514.905L134.763 677.045L325.636 425.618L476.805 667.185L202.006 514.905L224.271 356.599Z" fill="#151515"/>
<rect x="208.59" y="70.1143" width="194.527" height="204.867" rx="55" fill="#AA7441"/>
<ellipse cx="10.7044" cy="7.9321" rx="10.7044" ry="7.9321" transform="matrix(0.999741 0.0227584 -0.0330157 0.999455 224.347 187.88)" fill="#171414"/>
<ellipse cx="5.32527" cy="2.46202" rx="5.32527" ry="2.46202" transform="matrix(0.999741 0.0227584 -0.0330157 0.999455 229.723 188.854)" fill="white"/>
<ellipse cx="10.7044" cy="7.9321" rx="10.7044" ry="7.9321" transform="matrix(0.999741 0.0227584 -0.0330157 0.999455 300.936 183.599)" fill="#171414"/>
<ellipse cx="5.32527" cy="2.46202" rx="5.32527" ry="2.46202" transform="matrix(0.999741 0.0227584 -0.0330157 0.999455 306.312 184.573)" fill="white"/>
<path d="M197.482 69.6872C178.86 47.3242 199.394 14.1205 227.721 20.7931L280.738 33.2818C285.731 34.4581 290.507 36.419 294.886 39.0914L322.235 55.7819C327.708 59.1215 333.485 61.933 339.49 64.1785L375.067 77.4827C382.039 80.09 389.827 79.3107 396.145 75.3734C408.498 67.674 424.806 72.6707 430.726 85.9689L446.467 121.327C471.227 176.945 404.081 227.991 357.112 189.257L281.74 127.1C269.501 117.006 251.052 120.931 243.982 135.133C230.79 161.631 190.643 146.648 198.036 117.986L203.945 95.0818C206.125 86.6283 204.107 77.6418 198.52 70.9331L197.482 69.6872Z" fill="#181212"/>
<path d="M246.089 211.439L278.315 234.771L316.4 221.362L306.812 248.18L288.249 262.93L263.267 255.957L252.348 240.671L246.089 211.439Z" fill="white"/>
<path d="M135.539 275.62L328.72 308.267L328.796 308.28L328.872 308.269L563.711 275.642L488.725 375.454L488.458 375.809L488.78 376.116L563.807 447.727L328.815 499.053L135.498 447.693L173.377 375.988L173.482 375.788L173.402 375.577L135.539 275.62Z" fill="#FFFCFC" stroke="black"/>
<path d="M313.886 426.603L320.251 433.882L300.999 416.461L313.886 488.612V426.603Z" fill="#FDC500"/>
<path d="M333.021 437.841C333.021 443.342 325.474 445.638 316.631 445.638C307.789 445.638 300.999 443.342 300.999 437.841C300.999 432.341 327.788 437.841 317.01 427.882C325.852 427.882 333.021 432.341 333.021 437.841Z" fill="#030E01"/>
<path d="M333.021 437.841C333.021 443.342 325.474 445.638 316.631 445.638C307.789 445.638 300.999 443.342 300.999 437.841C300.999 432.341 327.788 437.841 317.01 427.882C325.852 427.882 333.021 432.341 333.021 437.841Z" fill="#030E01"/>
<path d="M333.021 453.589C333.021 459.089 325.852 463.548 317.01 463.548C308.167 463.548 403.117 461.006 403.117 455.506C403.117 450.006 307.789 445.638 316.631 445.638C325.474 445.638 333.021 448.089 333.021 453.589Z" fill="#030E01"/>
<path d="M333.021 453.589C333.021 459.089 325.852 463.548 317.01 463.548C308.167 463.548 403.117 461.006 403.117 455.506C403.117 450.006 307.789 445.638 316.631 445.638C325.474 445.638 333.021 448.089 333.021 453.589Z" fill="#030E01"/>
<path d="M311.435 469.533C276.379 480.754 288.628 414.358 319.034 421.681C253.273 419.507 291.435 469.209 287.57 466.397C283.704 463.585 307.017 476.275 311.688 472.778C316.36 469.282 307.57 466.721 311.435 469.533Z" fill="#4E0C08"/>
<path d="M189.074 366.612V364.962C190.341 364.929 191.208 364.646 191.674 364.112C192.141 363.546 192.391 362.796 192.424 361.862C192.491 360.896 192.524 359.796 192.524 358.562V337.562C192.524 336.662 192.541 335.896 192.574 335.262C192.608 334.596 192.641 334.046 192.674 333.612C192.074 333.646 191.474 333.679 190.874 333.712C190.274 333.746 189.674 333.779 189.074 333.812V331.612C190.908 331.579 192.741 331.562 194.574 331.562C196.441 331.529 198.374 331.512 200.374 331.512C204.241 331.512 207.258 332.196 209.424 333.562C211.624 334.929 212.691 337.096 212.624 340.062C212.624 341.129 212.308 342.196 211.674 343.262C211.074 344.329 210.158 345.279 208.924 346.112C207.724 346.912 206.208 347.479 204.374 347.812V347.912C208.041 347.912 210.808 348.762 212.674 350.462C214.541 352.129 215.474 354.246 215.474 356.812C215.474 358.846 214.958 360.596 213.924 362.062C212.891 363.529 211.491 364.662 209.724 365.462C207.958 366.229 205.941 366.612 203.674 366.612H189.074ZM196.724 364.612C197.258 364.646 197.891 364.679 198.624 364.712C199.391 364.712 200.091 364.712 200.724 364.712C201.391 364.712 201.824 364.712 202.024 364.712C204.591 364.712 206.658 364.079 208.224 362.812C209.824 361.512 210.624 359.612 210.624 357.112C210.624 355.079 210.224 353.496 209.424 352.362C208.624 351.229 207.574 350.429 206.274 349.962C204.974 349.496 203.558 349.262 202.024 349.262C201.024 349.262 200.108 349.279 199.274 349.312C198.474 349.312 197.674 349.346 196.874 349.412V360.712C196.874 361.612 196.858 362.379 196.824 363.012C196.824 363.646 196.791 364.179 196.724 364.612ZM196.874 347.462L200.524 347.362C202.424 347.329 203.924 346.946 205.024 346.212C206.124 345.446 206.908 344.496 207.374 343.362C207.874 342.229 208.108 341.046 208.074 339.812C208.041 338.012 207.624 336.646 206.824 335.712C206.058 334.779 205.108 334.146 203.974 333.812C202.841 333.479 201.724 333.312 200.624 333.312C199.524 333.312 198.708 333.462 198.174 333.762C197.641 334.062 197.291 334.562 197.124 335.262C196.958 335.962 196.874 336.929 196.874 338.162V347.462ZM229.836 333.262C228.736 333.262 227.936 333.496 227.436 333.962C226.97 334.429 226.686 334.979 226.586 335.612C226.486 336.212 226.436 336.746 226.436 337.212V349.812C226.436 351.679 226.553 353.496 226.786 355.262C227.053 356.996 227.536 358.562 228.236 359.962C228.936 361.362 229.97 362.479 231.336 363.312C232.736 364.146 234.553 364.562 236.786 364.562C239.186 364.562 241.136 363.996 242.636 362.862C244.17 361.729 245.286 360.162 245.986 358.162C246.72 356.162 247.103 353.862 247.136 351.262L247.286 337.212C247.286 336.546 247.303 335.912 247.336 335.312C247.37 334.679 247.403 334.112 247.436 333.612C246.836 333.646 246.236 333.679 245.636 333.712C245.07 333.746 244.486 333.779 243.886 333.812V331.612H253.186V333.262C251.92 333.296 251.036 333.579 250.536 334.112C250.07 334.646 249.803 335.362 249.736 336.262C249.703 337.162 249.686 338.212 249.686 339.412L249.586 351.012C249.586 353.179 249.353 355.246 248.886 357.212C248.42 359.179 247.653 360.929 246.586 362.462C245.553 363.996 244.17 365.212 242.436 366.112C240.736 366.979 238.636 367.412 236.136 367.412C233.47 367.412 231.22 367.062 229.386 366.362C227.586 365.662 226.136 364.579 225.036 363.112C223.97 361.646 223.203 359.796 222.736 357.562C222.27 355.329 222.036 352.662 222.036 349.562V339.412C222.036 338.546 222.053 337.529 222.086 336.362C222.153 335.162 222.203 334.246 222.236 333.612C221.636 333.646 221.036 333.679 220.436 333.712C219.836 333.712 219.236 333.729 218.636 333.762V331.612H229.836V333.262ZM257.434 364.962C258.701 364.896 259.567 364.612 260.034 364.112C260.501 363.579 260.751 362.862 260.784 361.962C260.851 361.029 260.884 359.979 260.884 358.812V337.212C260.884 336.546 260.901 335.912 260.934 335.312C260.967 334.679 261.001 334.112 261.034 333.612C260.434 333.646 259.834 333.679 259.234 333.712C258.634 333.746 258.034 333.779 257.434 333.812V331.612L269.234 331.562C272.234 331.562 274.984 331.912 277.484 332.612C279.984 333.312 282.134 334.396 283.934 335.862C285.767 337.296 287.167 339.129 288.134 341.362C289.134 343.562 289.634 346.162 289.634 349.162C289.634 351.462 289.234 353.662 288.434 355.762C287.634 357.862 286.434 359.729 284.834 361.362C283.234 362.962 281.234 364.246 278.834 365.212C276.467 366.146 273.717 366.612 270.584 366.612H257.434V364.962ZM265.234 360.712C265.234 361.612 265.217 362.379 265.184 363.012C265.184 363.646 265.151 364.179 265.084 364.612C265.984 364.646 266.801 364.679 267.534 364.712C268.301 364.712 268.934 364.712 269.434 364.712C269.967 364.712 270.301 364.712 270.434 364.712C272.601 364.712 274.551 364.312 276.284 363.512C278.051 362.712 279.551 361.612 280.784 360.212C282.051 358.779 283.017 357.112 283.684 355.212C284.384 353.279 284.734 351.196 284.734 348.962C284.734 345.796 284.151 343.062 282.984 340.762C281.851 338.429 280.101 336.629 277.734 335.362C275.367 334.062 272.351 333.412 268.684 333.412C267.451 333.412 266.584 333.662 266.084 334.162C265.617 334.662 265.351 335.362 265.284 336.262C265.251 337.162 265.234 338.212 265.234 339.412V360.712ZM311.29 367.412C307.956 367.412 305.006 366.712 302.44 365.312C299.873 363.912 297.873 361.896 296.44 359.262C295.006 356.629 294.29 353.496 294.29 349.862C294.29 347.496 294.64 345.196 295.34 342.962C296.073 340.696 297.156 338.646 298.59 336.812C300.056 334.979 301.873 333.529 304.04 332.462C306.24 331.362 308.79 330.812 311.69 330.812C312.89 330.812 314.106 330.929 315.34 331.162C316.573 331.362 317.756 331.679 318.89 332.112C320.056 332.512 321.106 332.996 322.04 333.562L321.84 331.162H324.59V342.612H322.79C322.656 340.512 322.09 338.746 321.09 337.312C320.123 335.846 318.856 334.729 317.29 333.962C315.723 333.196 313.973 332.812 312.04 332.812C310.273 332.812 308.606 333.212 307.04 334.012C305.506 334.779 304.14 335.879 302.94 337.312C301.773 338.712 300.856 340.379 300.19 342.312C299.523 344.246 299.19 346.379 299.19 348.712C299.19 351.846 299.756 354.646 300.89 357.112C302.023 359.579 303.59 361.512 305.59 362.912C307.623 364.312 309.956 365.012 312.59 365.012C313.49 365.012 314.423 364.929 315.39 364.762C316.39 364.596 317.373 364.329 318.34 363.962C319.34 363.562 320.273 363.079 321.14 362.512V356.412C321.14 355.612 321.14 354.812 321.14 354.012C321.14 353.179 321.14 352.362 321.14 351.562C320.573 351.596 319.99 351.629 319.39 351.662C318.79 351.696 318.206 351.729 317.64 351.762V349.562H328.94V351.212C328.006 351.212 327.29 351.462 326.79 351.962C326.29 352.429 325.94 353.012 325.74 353.712C325.54 354.379 325.423 355.046 325.39 355.712C325.356 356.346 325.34 356.829 325.34 357.162V364.812H323.99C323.456 364.812 322.723 364.912 321.79 365.112C320.856 365.312 319.79 365.646 318.59 366.112C317.556 366.512 316.356 366.829 314.99 367.062C313.623 367.296 312.39 367.412 311.29 367.412ZM350.127 353.662C350.127 352.196 349.927 351.146 349.527 350.512C349.127 349.879 348.493 349.496 347.627 349.362C346.76 349.229 345.61 349.196 344.177 349.262L340.527 349.412V360.862C340.527 361.762 340.51 362.529 340.477 363.162C340.477 363.796 340.443 364.329 340.377 364.762L349.927 364.612C351.393 364.579 352.66 364.346 353.727 363.912C354.793 363.446 355.627 362.646 356.227 361.512C356.827 360.379 357.127 358.829 357.127 356.862H358.827L358.527 366.612H332.727V364.962C333.993 364.896 334.86 364.612 335.327 364.112C335.793 363.579 336.043 362.862 336.077 361.962C336.143 361.029 336.177 359.979 336.177 358.812V337.212C336.177 336.546 336.193 335.912 336.227 335.312C336.26 334.679 336.293 334.112 336.327 333.612C335.727 333.646 335.127 333.679 334.527 333.712C333.927 333.746 333.327 333.779 332.727 333.812V331.612H356.777L357.027 340.362H355.377C355.377 338.396 355.077 336.912 354.477 335.912C353.877 334.879 353.06 334.196 352.027 333.862C351.027 333.496 349.893 333.329 348.627 333.362L344.327 333.462C343.093 333.496 342.21 333.729 341.677 334.162C341.143 334.596 340.81 335.246 340.677 336.112C340.577 336.946 340.527 338.046 340.527 339.412V347.412L349.927 347.462L349.577 343.162H351.777V353.662H350.127ZM390.03 342.162C389.997 340.196 389.797 338.562 389.43 337.262C389.064 335.962 388.414 334.996 387.48 334.362C386.58 333.696 385.264 333.379 383.53 333.412H379.28L379.23 360.662C379.23 361.562 379.214 362.346 379.18 363.012C379.18 363.646 379.147 364.179 379.08 364.612C379.78 364.579 380.464 364.546 381.13 364.512C381.83 364.479 382.53 364.446 383.23 364.412V366.612H371.48V364.962C372.747 364.896 373.597 364.596 374.03 364.062C374.497 363.529 374.747 362.812 374.78 361.912C374.847 360.979 374.88 359.946 374.88 358.812L374.93 333.462L369.78 333.512C367.68 333.512 366.197 334.212 365.33 335.612C364.464 337.012 364.03 339.196 364.03 342.162H362.18L362.48 331.612H391.63L391.93 342.162H390.03Z" fill="#FDC500"/>
<path d="M201.024 404.912C199.404 404.912 197.894 404.662 196.494 404.162C195.094 403.642 193.864 402.902 192.804 401.942C191.764 400.982 190.954 399.842 190.374 398.522C189.794 397.182 189.504 395.712 189.504 394.112C189.504 392.592 189.804 391.182 190.404 389.882C191.024 388.582 191.864 387.452 192.924 386.492C194.004 385.512 195.244 384.762 196.644 384.242C198.044 383.702 199.534 383.432 201.114 383.432C202.374 383.432 203.584 383.602 204.744 383.942C205.904 384.282 206.954 384.722 207.894 385.262C208.854 385.782 209.624 386.352 210.204 386.972L208.194 389.582C207.514 388.982 206.794 388.462 206.034 388.022C205.294 387.582 204.494 387.242 203.634 387.002C202.774 386.762 201.854 386.642 200.874 386.642C199.834 386.642 198.834 386.822 197.874 387.182C196.914 387.522 196.044 388.022 195.264 388.682C194.504 389.322 193.904 390.112 193.464 391.052C193.024 391.972 192.804 392.992 192.804 394.112C192.804 395.332 193.024 396.422 193.464 397.382C193.924 398.322 194.554 399.112 195.354 399.752C196.154 400.392 197.064 400.882 198.084 401.222C199.124 401.562 200.214 401.732 201.354 401.732C202.394 401.732 203.344 401.602 204.204 401.342C205.064 401.062 205.834 400.712 206.514 400.292C207.214 399.852 207.844 399.412 208.404 398.972L209.964 401.642C209.444 402.122 208.724 402.622 207.804 403.142C206.884 403.642 205.844 404.062 204.684 404.402C203.524 404.742 202.304 404.912 201.024 404.912ZM228.399 404.912C226.659 404.912 225.059 404.642 223.599 404.102C222.139 403.542 220.869 402.772 219.789 401.792C218.709 400.812 217.869 399.672 217.269 398.372C216.689 397.052 216.399 395.632 216.399 394.112C216.399 392.592 216.689 391.182 217.269 389.882C217.869 388.562 218.709 387.412 219.789 386.432C220.869 385.452 222.139 384.692 223.599 384.152C225.059 383.592 226.659 383.312 228.399 383.312C230.139 383.312 231.739 383.592 233.199 384.152C234.659 384.692 235.929 385.452 237.009 386.432C238.089 387.412 238.929 388.562 239.529 389.882C240.129 391.182 240.429 392.592 240.429 394.112C240.429 395.632 240.129 397.052 239.529 398.372C238.929 399.672 238.089 400.812 237.009 401.792C235.929 402.772 234.659 403.542 233.199 404.102C231.739 404.642 230.139 404.912 228.399 404.912ZM228.399 401.762C229.679 401.762 230.849 401.572 231.909 401.192C232.969 400.792 233.889 400.252 234.669 399.572C235.449 398.872 236.049 398.062 236.469 397.142C236.909 396.202 237.129 395.192 237.129 394.112C237.129 393.032 236.909 392.032 236.469 391.112C236.049 390.172 235.449 389.362 234.669 388.682C233.889 387.982 232.969 387.442 231.909 387.062C230.849 386.662 229.679 386.462 228.399 386.462C227.119 386.462 225.949 386.662 224.889 387.062C223.829 387.442 222.909 387.972 222.129 388.652C221.349 389.332 220.749 390.142 220.329 391.082C219.909 392.002 219.699 393.012 219.699 394.112C219.699 395.192 219.909 396.202 220.329 397.142C220.749 398.082 221.349 398.892 222.129 399.572C222.909 400.252 223.829 400.792 224.889 401.192C225.949 401.572 227.119 401.762 228.399 401.762ZM248.311 404.612V383.612H251.461L267.301 400.802L267.061 401.072C266.961 400.492 266.871 399.872 266.791 399.212C266.731 398.552 266.681 397.872 266.641 397.172C266.601 396.452 266.561 395.722 266.521 394.982C266.501 394.222 266.481 393.472 266.461 392.732C266.461 391.972 266.461 391.232 266.461 390.512V383.612H269.701V404.612H266.491L250.861 388.052L250.951 387.632C251.011 388.232 251.061 388.832 251.101 389.432C251.161 390.032 251.221 390.622 251.281 391.202C251.341 391.782 251.391 392.342 251.431 392.882C251.471 393.422 251.501 393.952 251.521 394.472C251.541 394.972 251.551 395.442 251.551 395.882V404.612H248.311ZM284.289 404.612V386.732H276.909V383.612H295.119V386.732H287.529V404.612H284.289ZM302.275 404.612V383.612H313.615C314.855 383.612 315.985 383.902 317.005 384.482C318.025 385.062 318.845 385.842 319.465 386.822C320.085 387.802 320.395 388.902 320.395 390.122C320.395 391.362 320.065 392.492 319.405 393.512C318.745 394.512 317.865 395.322 316.765 395.942C315.685 396.542 314.495 396.842 313.195 396.842H305.515V404.612H302.275ZM317.485 404.612L310.855 395.132L314.275 394.382L321.505 404.642L317.485 404.612ZM305.515 393.722H313.075C313.775 393.722 314.425 393.562 315.025 393.242C315.625 392.902 316.095 392.462 316.435 391.922C316.795 391.362 316.975 390.762 316.975 390.122C316.975 389.482 316.785 388.912 316.405 388.412C316.045 387.892 315.545 387.482 314.905 387.182C314.265 386.882 313.575 386.732 312.835 386.732H305.515V393.722ZM340.108 404.912C338.368 404.912 336.768 404.642 335.308 404.102C333.848 403.542 332.578 402.772 331.498 401.792C330.418 400.812 329.578 399.672 328.978 398.372C328.398 397.052 328.108 395.632 328.108 394.112C328.108 392.592 328.398 391.182 328.978 389.882C329.578 388.562 330.418 387.412 331.498 386.432C332.578 385.452 333.848 384.692 335.308 384.152C336.768 383.592 338.368 383.312 340.108 383.312C341.848 383.312 343.448 383.592 344.908 384.152C346.368 384.692 347.638 385.452 348.718 386.432C349.798 387.412 350.638 388.562 351.238 389.882C351.838 391.182 352.138 392.592 352.138 394.112C352.138 395.632 351.838 397.052 351.238 398.372C350.638 399.672 349.798 400.812 348.718 401.792C347.638 402.772 346.368 403.542 344.908 404.102C343.448 404.642 341.848 404.912 340.108 404.912ZM340.108 401.762C341.388 401.762 342.558 401.572 343.618 401.192C344.678 400.792 345.598 400.252 346.378 399.572C347.158 398.872 347.758 398.062 348.178 397.142C348.618 396.202 348.838 395.192 348.838 394.112C348.838 393.032 348.618 392.032 348.178 391.112C347.758 390.172 347.158 389.362 346.378 388.682C345.598 387.982 344.678 387.442 343.618 387.062C342.558 386.662 341.388 386.462 340.108 386.462C338.828 386.462 337.658 386.662 336.598 387.062C335.538 387.442 334.618 387.972 333.838 388.652C333.058 389.332 332.458 390.142 332.038 391.082C331.618 392.002 331.408 393.012 331.408 394.112C331.408 395.192 331.618 396.202 332.038 397.142C332.458 398.082 333.058 398.892 333.838 399.572C334.618 400.252 335.538 400.792 336.598 401.192C337.658 401.572 338.828 401.762 340.108 401.762ZM360.02 404.612V383.612H363.26V401.492H376.13V404.612H360.02ZM384.453 404.612V383.612H387.693V401.492H400.563V404.612H384.453ZM408.477 404.612V383.612H424.737V386.732H411.717V401.492H424.737V404.612H408.477ZM410.187 395.402V392.282H423.087V395.402H410.187ZM433.555 404.612V383.612H444.895C446.135 383.612 447.265 383.902 448.285 384.482C449.305 385.062 450.125 385.842 450.745 386.822C451.365 387.802 451.675 388.902 451.675 390.122C451.675 391.362 451.345 392.492 450.685 393.512C450.025 394.512 449.145 395.322 448.045 395.942C446.965 396.542 445.775 396.842 444.475 396.842H436.795V404.612H433.555ZM448.765 404.612L442.135 395.132L445.555 394.382L452.785 404.642L448.765 404.612ZM436.795 393.722H444.355C445.055 393.722 445.705 393.562 446.305 393.242C446.905 392.902 447.375 392.462 447.715 391.922C448.075 391.362 448.255 390.762 448.255 390.122C448.255 389.482 448.065 388.912 447.685 388.412C447.325 387.892 446.825 387.482 446.185 387.182C445.545 386.882 444.855 386.732 444.115 386.732H436.795V393.722Z" fill="#4E0C08"/>
<path d="M452.714 640.833C452.714 663.219 436.188 681.368 415.801 681.368C395.414 681.368 378.888 663.219 378.888 640.833C378.888 618.446 453.041 673.151 473.428 673.151C493.815 673.151 485.147 628.234 452.714 640.833Z" fill="#111111"/>
<path d="M524.497 333.045C541.79 348.53 537.266 359.216 528.927 367.356C520.587 375.495 522.492 406.001 505.198 390.515C487.905 375.03 516.409 382.968 524.749 374.828C533.088 366.689 427.272 427.941 524.497 333.045Z" fill="#111111"/>
<path d="M176.055 374.443C153.691 382.447 145.289 374.058 140.979 363.532C136.668 353.006 106.351 341.586 128.715 333.582C151.078 325.578 131.226 346.282 135.536 356.808C139.846 367.335 125.804 251.724 176.055 374.443Z" fill="#111111"/>
<path d="M144.138 648.465C144.138 670.852 127.611 689 107.225 689C86.8379 689 70.3112 670.852 70.3112 648.465C70.3112 626.078 144.465 680.783 164.852 680.783C185.238 680.783 176.57 635.866 144.138 648.465Z" fill="#111111"/>
<rect x="484.474" y="72.5254" width="177.622" height="190.405" rx="56" fill="#2E2D2A" fill-opacity="0.5"/>
<rect x="476.944" y="64.6372" width="174.3" height="186.053" rx="47" fill="#4E0C08"/>
<rect x="487.796" y="79.8696" width="150.16" height="31.5528" rx="15.7764" fill="#FBFBFB"/>
<rect x="487.796" y="126.655" width="6.20128" height="10.0643" rx="3.10064" fill="#FAFAFA"/>
<rect x="495.99" y="126.655" width="6.20128" height="10.0643" rx="3.10064" fill="#FAFAFA"/>
<rect x="504.628" y="127.471" width="6.20128" height="10.0643" rx="3.10064" fill="#FAFAFA"/>
<rect x="487.796" y="145.967" width="13.5099" height="19.8565" rx="6.75497" fill="#FDC500"/>
<rect x="505.736" y="145.967" width="13.5099" height="19.8565" rx="6.75497" fill="#FDC500"/>
<rect x="524.561" y="147.6" width="13.5099" height="19.8565" rx="6.75497" fill="#FDC500"/>
<rect x="487.796" y="174.8" width="13.5099" height="19.8565" rx="6.75497" fill="#FDC500"/>
<rect x="505.736" y="174.801" width="13.5099" height="19.8565" rx="6.75497" fill="#FDC500"/>
<rect x="524.561" y="176.433" width="13.5099" height="19.8565" rx="6.75497" fill="#FDC500"/>
<rect x="487.796" y="205.265" width="13.5099" height="19.8565" rx="6.75497" fill="#FDC500"/>
<rect x="505.736" y="205.265" width="13.5099" height="19.8565" rx="6.75497" fill="#FDC500"/>
<rect x="524.561" y="206.897" width="13.5099" height="19.8565" rx="6.75497" fill="#FDC500"/>
<rect x="520.131" y="118.223" width="31.6621" height="19.8565" rx="9.92826" fill="#FDC500"/>
<rect x="562.175" y="118.223" width="31.6621" height="19.8565" rx="9.92826" fill="#FDC500"/>
<rect x="606.294" y="119.855" width="31.6621" height="19.8565" rx="9.92826" fill="#FDC500"/>
<rect x="587.681" y="144.335" width="13.5099" height="19.8565" rx="6.75497" fill="#FDC500"/>
<rect x="605.621" y="144.335" width="13.5099" height="19.8565" rx="6.75497" fill="#FDC500"/>
<rect x="624.446" y="145.967" width="13.5099" height="19.8565" rx="6.75497" fill="#FDC500"/>
<rect x="587.681" y="169.088" width="13.5099" height="19.8565" rx="6.75497" fill="#FDC500"/>
<rect x="605.621" y="169.088" width="13.5099" height="19.8565" rx="6.75497" fill="#FDC500"/>
<rect x="624.446" y="170.72" width="13.5099" height="19.8565" rx="6.75497" fill="#FDC500"/>
<rect x="587.681" y="198.193" width="13.5099" height="19.8565" rx="6.75497" fill="#FDC500"/>
<rect x="605.621" y="198.193" width="13.5099" height="19.8565" rx="6.75497" fill="#FDC500"/>
<rect x="624.446" y="199.825" width="13.5099" height="19.8565" rx="6.75497" fill="#FDC500"/>
<line y1="-5" x2="301.188" y2="-5" transform="matrix(0.341038 0.94137 -0.965961 0.255058 656.796 313.866)" stroke="black" stroke-width="10"/>
<line y1="-5" x2="301.188" y2="-5" transform="matrix(0.341038 0.94137 -0.965961 0.255058 605.543 317.677)" stroke="black" stroke-width="10"/>
<rect width="19.4093" height="87.8535" rx="9.70466" transform="matrix(-0.0186986 -0.999762 0.999896 -0.0175248 586.362 363.873)" fill="#FDC500"/>
<rect width="19.4093" height="87.8535" rx="9.70466" transform="matrix(-0.0190389 -0.999757 0.999902 -0.017248 589.56 386.985)" fill="#FDC500"/>
<rect width="19.4093" height="87.8535" rx="9.70466" transform="matrix(-0.0190389 -0.999757 0.999902 -0.017248 590.009 410.651)" fill="#FDC500"/>
<rect width="19.4093" height="87.8535" rx="9.70466" transform="matrix(-0.0190389 -0.999757 0.999902 -0.017248 591.521 435.075)" fill="#FDC500"/>
<rect width="19.4093" height="87.8535" rx="9.70466" transform="matrix(-0.0190389 -0.999757 0.999902 -0.017248 592.66 458.721)" fill="#FDC500"/>
<rect width="19.4093" height="87.8535" rx="9.70466" transform="matrix(-0.0186986 -0.999762 0.999896 -0.0175248 593.478 483.694)" fill="#FDC500"/>
<rect width="19.4093" height="87.8535" rx="9.70466" transform="matrix(-0.0190389 -0.999757 0.999902 -0.017248 596.676 506.806)" fill="#FDC500"/>
<rect width="19.4093" height="87.8535" rx="9.70466" transform="matrix(-0.0190389 -0.999757 0.999902 -0.017248 597.125 530.472)" fill="#FDC500"/>
<rect width="19.4093" height="87.8535" rx="9.70466" transform="matrix(-0.0190389 -0.999757 0.999902 -0.017248 598.636 554.896)" fill="#FDC500"/>
<rect width="19.4093" height="87.8535" rx="9.70466" transform="matrix(-0.0190389 -0.999757 0.999902 -0.017248 599.777 578.542)" fill="#FDC500"/>
<line y1="-5" x2="294.74" y2="-5" transform="matrix(0.0431573 0.999109 -0.999026 0.0428092 602.824 315.449)" stroke="black" stroke-width="10"/>
<line y1="-5" x2="294.74" y2="-5" transform="matrix(0.0431573 0.999109 -0.999026 0.0428092 656.797 313.866)" stroke="black" stroke-width="10"/>
</svg>
