<svg width="777" height="729" viewBox="0 0 777 729" fill="none" xmlns="http://www.w3.org/2000/svg">
<g opacity="0.5">
<path d="M196.651 126.559C241.326 63.5819 335.471 59.7099 384.046 118.852L493.663 252.317C511.59 274.144 537.301 288.638 565.811 292.99L595.704 297.553C680.041 310.427 720.928 404.27 672.156 473.022L577.009 607.149C533.343 668.704 441.948 674.083 392.312 618.02L287.306 499.417C272.326 482.498 252.46 470.337 230.224 464.474L157.315 445.251C80.2399 424.929 47.5534 336.738 93.2309 272.348L196.651 126.559Z" fill="#FDC500"/>
<rect width="522.309" height="299.274" rx="40" transform="matrix(0.999982 -0.00597074 0.00638885 0.99998 127.005 217.982)" fill="#4E0C08" fill-opacity="0.8"/>
<rect width="438.238" height="227.015" rx="32" transform="matrix(0.999898 -0.0142552 0.0152533 0.999884 168.282 253.34)" fill="#FCF8F8"/>
<path d="M232.566 525.1C240.89 516.151 252.561 511.067 264.783 511.067H519.648C532.046 511.067 543.869 516.298 552.208 525.472L628.46 609.363C654.152 637.628 634.097 682.958 595.9 682.958H186.749C148.312 682.958 128.353 637.134 154.532 608.99L232.566 525.1Z" fill="#713106" fill-opacity="0.8"/>
<path d="M255.899 539.766C264.045 532.172 274.767 527.949 285.904 527.949H510.818C522.13 527.949 533.007 532.306 541.191 540.115L587.295 584.102C616.019 611.507 596.621 659.937 556.921 659.937H238.723C198.776 659.937 179.5 610.995 208.719 583.754L255.899 539.766Z" fill="#713106"/>
<path d="M360.215 344.598L370.192 358.194L340.015 325.654L360.215 460.421V344.598Z" fill="#FDC500"/>
<path d="M390.209 365.589C390.209 375.863 378.379 380.152 364.519 380.152C350.658 380.152 340.015 375.863 340.015 365.589C340.015 355.315 382.006 365.589 365.112 346.987C378.972 346.987 390.209 355.315 390.209 365.589Z" fill="#030E01"/>
<path d="M390.209 365.589C390.209 375.863 378.379 380.152 364.519 380.152C350.658 380.152 340.015 375.863 340.015 365.589C340.015 355.315 382.006 365.589 365.112 346.987C378.972 346.987 390.209 355.315 390.209 365.589Z" fill="#030E01"/>
<path d="M390.209 395.003C390.209 405.277 378.972 413.605 365.112 413.605C351.251 413.605 500.083 408.858 500.083 398.584C500.083 388.31 350.658 380.152 364.519 380.152C378.379 380.152 390.209 384.729 390.209 395.003Z" fill="#030E01"/>
<path d="M390.209 395.003C390.209 405.277 378.972 413.605 365.112 413.605C351.251 413.605 500.083 408.858 500.083 398.584C500.083 388.31 350.658 380.152 364.519 380.152C378.379 380.152 390.209 384.729 390.209 395.003Z" fill="#030E01"/>
<path d="M356.374 424.784C301.424 445.743 320.624 321.724 368.285 335.404C265.207 331.342 325.025 424.179 318.965 418.926C312.906 413.674 349.449 437.377 356.771 430.846C364.093 424.315 350.315 419.532 356.374 424.784Z" fill="#4E0C08"/>
</g>
</svg>
